<svg xmlns="http://www.w3.org/2000/svg" viewBox="0 0 240 240" width="240" height="240">
  <!-- tile de fondo -->
  <rect x="0" y="0" width="240" height="240" fill="#5c1013"/>

  <!-- pequeño dragón enroscado, diseño original -->
  <g stroke="#e0b563" stroke-width="3" fill="none" opacity="0.85">
    <path d="M70 40 C 110 30 150 45 155 75 C 160 105 135 125 105 120
             C 80 116 68 98 78 82 C 86 70 102 68 108 80
             C 112 88 104 96 96 92"/>
  </g>
  <g fill="#e0b563" opacity="0.85">
    <!-- espinas -->
    <polygon points="82,36 88,22 94,38"/>
    <polygon points="100,32 106,18 112,34"/>
    <polygon points="118,34 126,22 130,40"/>
    <polygon points="136,42 146,32 146,50"/>
    <polygon points="150,58 162,52 158,70"/>
    <!-- cabeza -->
    <path d="M70 40 C 58 32 44 32 36 42 C 30 50 34 58 44 58
             C 40 66 44 74 54 74 C 64 74 70 66 68 58
             C 76 60 82 54 80 46 C 78 40 74 38 70 40 Z"/>
    <circle cx="48" cy="46" r="2.6" fill="#5c1013"/>
    <!-- bigotes -->
  </g>
  <g stroke="#e0b563" stroke-width="2" fill="none" opacity="0.85" stroke-linecap="round">
    <path d="M36 48 C 24 44 12 48 6 58"/>
    <path d="M38 60 C 26 62 16 70 12 80"/>
    <path d="M60 30 C 62 20 56 12 48 8"/>
  </g>
  <!-- cola -->
  <g fill="#e0b563" opacity="0.8">
    <path d="M96 92 C 84 98 70 96 62 86 C 72 90 82 86 86 78 C 90 88 96 90 96 92 Z"/>
  </g>

  <!-- nube decorativa -->
  <g fill="none" stroke="#e0b563" stroke-width="2.4" opacity="0.6" stroke-linecap="round">
    <path d="M170 170 c-8-10 6-18 14-10 c2-10 18-10 18 2 c10-4 16 8 8 14
             c4 8-6 14-14 10 c-4 8-18 6-18-4 c-10 2-14-8-8-12z"/>
  </g>

  <!-- pequeña nube secundaria -->
  <g fill="none" stroke="#e0b563" stroke-width="2" opacity="0.4" stroke-linecap="round">
    <path d="M30 190 c-5-6 4-11 9-6 c1-6 11-6 11 1 c6-2 10 5 5 8
             c2 5-4 9-9 6 c-3 5-11 4-11-2 c-6 1-8-5-5-7z"/>
  </g>
</svg>
